HIERARCHY
ROOT Hips
{
	OFFSET 0.000000 0.000000 0.000000
	CHANNELS 6 Xposition Yposition Zposition Xrotation Yrotation Zrotation
	JOINT LeftUpLeg_virtual
	{
		OFFSET 0.000000 0.000000 0.000000
		CHANNELS 3 Xrotation Yrotation Zrotation
		JOINT LeftUpLeg
		{
			OFFSET 15.427100 -6.655098 0.678600
			CHANNELS 3 Xrotation Yrotation Zrotation
			JOINT LeftLeg
			{
				OFFSET 4.081073 -39.591068 13.024000
				CHANNELS 3 Xrotation Yrotation Zrotation
				JOINT LeftFoot
				{
					OFFSET -4.081074 -37.707932 -15.979700
					CHANNELS 3 Xrotation Yrotation Zrotation
					JOINT LeftToeBase
					{
						OFFSET 5.346399 -15.068900 20.645000
						CHANNELS 3 Xrotation Yrotation Zrotation
						JOINT LeftToe_End
						{
							OFFSET 2.754700 0.931300 11.300900
							CHANNELS 3 Xrotation Yrotation Zrotation
							End Site
							{
								OFFSET 0 0 0
							}
						}
					}
				}
			}
		}
	}
	JOINT RightUpLeg_virtual
	{
		OFFSET 0.000000 0.000000 0.000000
		CHANNELS 3 Xrotation Yrotation Zrotation
		JOINT RightUpLeg
		{
			OFFSET -15.569500 -6.655098 0.678600
			CHANNELS 3 Xrotation Yrotation Zrotation
			JOINT RightLeg
			{
				OFFSET -4.081825 -39.591045 13.023800
				CHANNELS 3 Xrotation Yrotation Zrotation
				JOINT RightFoot
				{
					OFFSET 4.081824 -37.707954 -15.979600
					CHANNELS 3 Xrotation Yrotation Zrotation
					JOINT RightToeBase
					{
						OFFSET -5.346400 -15.068900 20.645000
						CHANNELS 3 Xrotation Yrotation Zrotation
						JOINT RightToe_End
						{
							OFFSET -2.754700 0.931300 11.300900
							CHANNELS 3 Xrotation Yrotation Zrotation
							End Site
							{
								OFFSET 0 0 0
							}
						}
					}
				}
			}
		}
	}
	JOINT Spine_virtual
	{
		OFFSET 0.000000 0.000000 0.000000
		CHANNELS 3 Xrotation Yrotation Zrotation
		JOINT Spine
		{
			OFFSET -0.279200 12.230698 -2.892100
			CHANNELS 3 Xrotation Yrotation Zrotation
			JOINT Spine1
			{
				OFFSET -0.232667 10.192268 -1.242267
				CHANNELS 3 Xrotation Yrotation Zrotation
				JOINT Spine1_split
				{
					OFFSET -0.232667 10.192268 -1.242267
					CHANNELS 3 Xrotation Yrotation Zrotation
					JOINT Spine2
					{
						OFFSET -0.232667 10.192268 -1.242267
						CHANNELS 3 Xrotation Yrotation Zrotation
						JOINT Neck_virtual
						{
							OFFSET 0.000000 0.000000 0.000000
							CHANNELS 3 Xrotation Yrotation Zrotation
							JOINT Neck
							{
								OFFSET -0.418800 17.814194 8.416900
								CHANNELS 3 Xrotation Yrotation Zrotation
								JOINT Head
								{
									OFFSET 0.000000 7.031097 3.806800
									CHANNELS 3 Xrotation Yrotation Zrotation
									JOINT HeadTop_End
									{
										OFFSET 0.000000 24.646606 12.978600
										CHANNELS 3 Xrotation Yrotation Zrotation
										End Site
										{
											OFFSET 0 0 0
										}
									}
								}
							}
						}
						JOINT LeftShoulder_virtual
						{
							OFFSET 0.000000 0.000000 0.000000
							CHANNELS 3 Xrotation Yrotation Zrotation
							JOINT LeftShoulder
							{
								OFFSET 8.476499 7.247704 -3.868750
								CHANNELS 3 Xrotation Yrotation Zrotation
								JOINT LeftShoulder_split
								{
									OFFSET 8.476499 7.247704 -3.868750
									CHANNELS 3 Xrotation Yrotation Zrotation
									JOINT LeftArm
									{
										OFFSET 9.308998 -2.777710 0.208600
										CHANNELS 3 Xrotation Yrotation Zrotation
										JOINT LeftForeArm
										{
											OFFSET 29.972298 0.000000 0.000000
											CHANNELS 3 Xrotation Yrotation Zrotation
											JOINT LeftHand
											{
												OFFSET 26.026505 0.000000 0.000000
												CHANNELS 3 Xrotation Yrotation Zrotation
												End Site
												{
													OFFSET 0 0 0
												}
											}
										}
									}
								}
							}
						}
						JOINT RightShoulder_virtual
						{
							OFFSET 0.000000 0.000000 0.000000
							CHANNELS 3 Xrotation Yrotation Zrotation
							JOINT RightShoulder
							{
								OFFSET -7.570500 7.247704 -3.868750
								CHANNELS 3 Xrotation Yrotation Zrotation
								JOINT RightShoulder_split
								{
									OFFSET -7.570500 7.247704 -3.868750
									CHANNELS 3 Xrotation Yrotation Zrotation
									JOINT RightArm
									{
										OFFSET -9.308998 -2.777710 0.208500
										CHANNELS 3 Xrotation Yrotation Zrotation
										JOINT RightForeArm
										{
											OFFSET -29.972300 0.000000 0.000000
											CHANNELS 3 Xrotation Yrotation Zrotation
											JOINT RightHand
											{
												OFFSET -26.026505 0.000000 0.000000
												CHANNELS 3 Xrotation Yrotation Zrotation
												End Site
												{
													OFFSET 0 0 0
												}
											}
										}
									}
								}
							}
						}
					}
				}
			}
		}
	}
}
MOTION
Frames: 5
Frame Time: 0.03333333
15.063409 49.898132 -45.268944 0.000000 0.000000 0.000000 43.538255 -27.158907 11.346918 -63.297105 -0.618948 -8.364974 99.716582 2.720106 4.833441 11.616548 -3.859630 -9.415330 11.320034 -6.726418 -26.933492 0.000000 0.000000 0.000000 45.859584 -28.739582 12.659002 -101.020137 -6.695277 -27.862404 92.416202 -13.052340 6.629904 -21.591797 -3.081671 4.884475 -5.452774 0.470995 0.164186 0.000000 0.000000 0.000000 44.882723 -29.155619 12.854625 34.321605 9.444540 5.018686 5.730895 3.260643 0.751839 0.781386 -0.568973 1.647519 0.000000 0.000000 0.000000 7.040177 2.781266 1.072369 -9.366575 -4.253582 0.293349 -22.061771 -19.031909 -7.531382 0.000000 0.000000 0.000000 6.676680 2.601779 0.758202 5.230171 -21.144568 -8.595357 1.196137 0.540150 -3.287584 -26.151008 -19.839763 -37.895252 1.870425 -36.551464 0.537670 0.000000 0.000000 0.000000 5.924825 2.423931 1.529913 -1.691364 28.823644 15.620112 -1.791740 0.803301 -2.024153 -51.751298 47.193817 18.026186 -1.118765 15.447443 -0.150215 0.000000 0.000000 0.000000 
15.404401 50.311455 -44.883652 0.000000 0.000000 0.000000 42.567672 -28.852683 11.716120 -63.359389 -0.828787 -9.048294 98.816950 3.103736 3.773312 6.103331 -1.188595 -8.296988 5.621483 -4.405606 -18.962931 0.000000 0.000000 0.000000 44.881067 -30.222720 13.170107 -99.281089 -6.389262 -27.578670 91.943649 -12.864871 7.161100 -21.641861 -3.830826 4.942983 -5.717524 0.679088 0.131661 0.000000 0.000000 0.000000 43.833545 -31.355664 13.430034 33.997400 9.490831 4.119534 5.935928 3.251981 0.678613 0.866367 -0.470229 1.624446 0.000000 0.000000 0.000000 7.101238 2.757939 0.960573 -8.482905 -3.576129 -0.138404 -21.972264 -17.660463 -8.129423 0.000000 0.000000 0.000000 6.942200 2.623236 0.526514 5.704416 -21.535902 -8.585175 0.516224 0.265442 -3.221877 -24.368457 -16.865588 -37.748816 1.863425 -38.271831 0.656414 0.000000 0.000000 0.000000 6.179475 2.482729 1.389015 -1.181473 28.451851 14.900082 -1.995054 0.643867 -1.871281 -49.259669 45.517149 17.774375 -0.899438 18.743656 -0.148885 0.000000 0.000000 0.000000 
15.525325 50.828842 -44.615616 0.000000 0.000000 0.000000 41.213891 -29.843873 11.704018 -66.203869 -0.809542 -8.415888 99.354104 2.461513 2.486260 3.892757 -0.487432 -9.292285 -0.499344 -2.989727 -11.219296 0.000000 0.000000 0.000000 43.915900 -31.340767 13.592412 -97.158751 -5.796110 -26.786725 91.998618 -12.379907 7.627945 -22.392345 -4.758857 4.628604 -5.911794 0.915916 0.053885 0.000000 0.000000 0.000000 42.816147 -32.377948 13.461594 33.579119 9.531725 3.149751 6.113640 3.222807 0.551770 1.046236 -0.782905 1.601336 0.000000 0.000000 0.000000 7.096218 2.756929 0.811325 -7.582926 -2.890728 -0.641396 -21.518753 -16.022381 -8.409342 0.000000 0.000000 0.000000 7.164167 2.632099 0.278870 6.172427 -22.115137 -8.367714 0.013387 -0.135300 -3.046186 -22.899912 -14.152618 -37.457393 1.596264 -39.675725 0.601335 0.000000 0.000000 0.000000 6.392379 2.556451 1.229763 -0.543746 28.001698 13.928112 -2.119209 0.354906 -1.705611 -47.167893 44.179883 17.650863 -0.699493 22.360260 -0.064780 0.000000 0.000000 0.000000 
15.396079 51.577282 -44.051338 0.000000 0.000000 0.000000 39.635219 -30.075153 11.346552 -71.305051 -1.329140 -6.600154 101.115685 0.799949 1.880581 7.018479 -2.141253 -12.541317 -12.995096 -2.560934 -3.189369 0.000000 0.000000 0.000000 42.851295 -32.020968 13.825284 -94.768643 -4.988449 -25.596300 92.481356 -11.410978 7.977056 -23.719896 -5.771164 4.088245 -5.826494 1.152920 -0.038542 0.000000 0.000000 0.000000 42.020895 -32.303796 13.111054 33.197632 9.534552 2.248359 6.257819 3.165326 0.396947 1.459186 -1.187804 1.672743 0.000000 0.000000 0.000000 7.055813 2.755401 0.658730 -6.776322 -2.297634 -1.191070 -20.895468 -14.358861 -8.442725 0.000000 0.000000 0.000000 7.311768 2.622323 0.049634 6.606482 -22.872062 -7.902718 -0.295076 -0.529993 -2.928260 -21.918514 -11.908953 -36.821895 1.129261 -40.815342 0.440574 0.000000 0.000000 0.000000 6.539867 2.630298 1.068020 0.142587 27.406660 12.772177 -1.984834 0.075622 -1.539222 -45.761864 43.455890 17.678531 -0.609738 25.642470 0.120792 0.000000 0.000000 0.000000 
15.091786 52.496841 -43.047745 0.000000 0.000000 0.000000 38.272364 -29.903186 10.977396 -76.804063 -2.731217 -4.965627 103.138910 -0.512500 1.744386 11.898307 -4.370666 -15.104335 -31.708576 -3.951884 3.085230 0.000000 0.000000 0.000000 41.532249 -32.280594 13.789611 -92.238385 -4.152583 -24.298724 93.120026 -9.869438 8.083409 -25.434390 -6.757359 3.544068 -5.216816 1.365011 -0.083326 0.000000 0.000000 0.000000 41.323191 -31.749243 12.593639 33.066585 9.449794 1.495750 6.304127 3.074697 0.250277 1.487207 -1.407051 1.665589 0.000000 0.000000 0.000000 7.044783 2.721338 0.528308 -6.264984 -1.894845 -1.741511 -20.352132 -12.779024 -8.332057 0.000000 0.000000 0.000000 7.370234 2.585185 -0.131271 6.985210 -23.794236 -7.177789 -0.358370 -0.708752 -2.828524 -21.503360 -10.196828 -35.751290 0.657712 -41.837508 0.305974 0.000000 0.000000 0.000000 6.586028 2.645667 0.943823 0.784651 26.543433 11.376437 -1.412573 -0.070468 -1.394005 -45.284134 43.489583 18.074916 -0.662586 28.294586 0.374120 0.000000 0.000000 0.000000 
